<?xml version="1.0" encoding="utf-8"?>
<!-- Generator: Adobe Illustrator 16.0.4, SVG Export Plug-In . SVG Version: 6.00 Build 0)  -->
<!DOCTYPE svg PUBLIC "-//W3C//DTD SVG 1.1//EN" "http://www.w3.org/Graphics/SVG/1.1/DTD/svg11.dtd">
<svg version="1.1" id="Layer_1" xmlns="http://www.w3.org/2000/svg" xmlns:xlink="http://www.w3.org/1999/xlink" x="0px" y="0px"
	 width="38px" height="50.5px" viewBox="0 0 38 50.5" enable-background="new 0 0 38 50.5" xml:space="preserve">
<path d="M36.5,45.6c-0.1-0.4-0.3-0.8-0.5-1.1l-7.6-13.9c3.8-2.8,6.3-7.4,6.3-12.5c0-8.5-6.9-15.5-15.5-15.5S3.8,9.6,3.8,18.1
	s6.9,15.5,15.5,15.5c1.7,0,3.3-0.3,4.8-0.8l7.7,14l0,0c0.4,1.1,1.6,1.7,2.8,1.5C35.8,48.2,36.7,46.9,36.5,45.6z M19.2,29
	c-6,0-10.8-4.9-10.8-10.8c0-6,4.9-10.8,10.8-10.8c6,0,10.8,4.9,10.8,10.8C30.1,24.1,25.2,29,19.2,29z"/>
</svg>
